<svg width="18" height="18" viewBox="0 0 18 18" fill="none" xmlns="http://www.w3.org/2000/svg">
<g clip-path="url(#clip0_1_1357)">
<path d="M10.5 10.125V6C10.5 5.20435 10.1839 4.44129 9.62132 3.87868C9.05871 3.31607 8.29565 3 7.5 3C6.70435 3 5.94129 3.31607 5.37868 3.87868C4.81607 4.44129 4.5 5.20435 4.5 6V10.125C4.5 11.4179 5.01361 12.6579 5.92785 13.5721C6.84209 14.4864 8.08207 15 9.375 15C10.6679 15 11.9079 14.4864 12.8221 13.5721C13.7364 12.6579 14.25 11.4179 14.25 10.125V3H15.75V10.125C15.75 11.8158 15.0784 13.4373 13.8828 14.6328C12.6873 15.8284 11.0658 16.5 9.375 16.5C7.68425 16.5 6.06274 15.8284 4.86719 14.6328C3.67165 13.4373 3 11.8158 3 10.125V6C3 4.80653 3.47411 3.66193 4.31802 2.81802C5.16193 1.97411 6.30653 1.5 7.5 1.5C8.69347 1.5 9.83807 1.97411 10.682 2.81802C11.5259 3.66193 12 4.80653 12 6V10.125C12 10.8212 11.7234 11.4889 11.2312 11.9812C10.7389 12.4734 10.0712 12.75 9.375 12.75C8.67881 12.75 8.01113 12.4734 7.51884 11.9812C7.02656 11.4889 6.75 10.8212 6.75 10.125V6H8.25V10.125C8.25 10.4234 8.36853 10.7095 8.5795 10.9205C8.79048 11.1315 9.07663 11.25 9.375 11.25C9.67337 11.25 9.95952 11.1315 10.1705 10.9205C10.3815 10.7095 10.5 10.4234 10.5 10.125Z" fill="#161616"/>
</g>
<defs>
<clipPath id="clip0_1_1357">
<rect width="18" height="18" fill="white"/>
</clipPath>
</defs>
</svg>
