<svg width="18" height="18" viewBox="0 0 18 18" fill="none" xmlns="http://www.w3.org/2000/svg">
<g clip-path="url(#clip0_1_1358)">
<path d="M14.5 9.75H13V5.4285L7.054 10.7535L1 5.412V14.25H8.5V15.75H0.25C0.0510876 15.75 -0.139678 15.671 -0.28033 15.5303C-0.420982 15.3897 -0.5 15.1989 -0.5 15V3C-0.5 2.80109 -0.420982 2.61032 -0.28033 2.46967C-0.139678 2.32902 0.0510876 2.25 0.25 2.25H13.75C13.9489 2.25 14.1397 2.32902 14.2803 2.46967C14.421 2.61032 14.5 2.80109 14.5 3V9.75ZM1.38325 3.75L7.04575 8.7465L12.6265 3.75H1.38325ZM13.75 13.5H16V15H13.75V17.25H12.25V15H10V13.5H12.25V11.25H13.75V13.5Z" fill="#161616"/>
</g>
<defs>
<clipPath id="clip0_1_1358">
<rect width="18" height="18" fill="white"/>
</clipPath>
</defs>
</svg>
