<svg width="18" height="18" viewBox="0 0 18 18" fill="none" xmlns="http://www.w3.org/2000/svg">
<g clip-path="url(#clip0_1_1356)">
<path d="M4.5 14.25H2.25C2.05109 14.25 1.86032 14.171 1.71967 14.0303C1.57902 13.8897 1.5 13.6989 1.5 13.5V6C1.5 5.80109 1.57902 5.61032 1.71967 5.46967C1.86032 5.32902 2.05109 5.25 2.25 5.25H4.5V2.25C4.5 2.05109 4.57902 1.86032 4.71967 1.71967C4.86032 1.57902 5.05109 1.5 5.25 1.5H12.75C12.9489 1.5 13.1397 1.57902 13.2803 1.71967C13.421 1.86032 13.5 2.05109 13.5 2.25V5.25H15.75C15.9489 5.25 16.1397 5.32902 16.2803 5.46967C16.421 5.61032 16.5 5.80109 16.5 6V13.5C16.5 13.6989 16.421 13.8897 16.2803 14.0303C16.1397 14.171 15.9489 14.25 15.75 14.25H13.5V15.75C13.5 15.9489 13.421 16.1397 13.2803 16.2803C13.1397 16.421 12.9489 16.5 12.75 16.5H5.25C5.05109 16.5 4.86032 16.421 4.71967 16.2803C4.57902 16.1397 4.5 15.9489 4.5 15.75V14.25ZM4.5 12.75V12C4.5 11.8011 4.57902 11.6103 4.71967 11.4697C4.86032 11.329 5.05109 11.25 5.25 11.25H12.75C12.9489 11.25 13.1397 11.329 13.2803 11.4697C13.421 11.6103 13.5 11.8011 13.5 12V12.75H15V6.75H3V12.75H4.5ZM6 3V5.25H12V3H6ZM6 12.75V15H12V12.75H6ZM3.75 7.5H6V9H3.75V7.5Z" fill="#161616"/>
</g>
<defs>
<clipPath id="clip0_1_1356">
<rect width="18" height="18" fill="white"/>
</clipPath>
</defs>
</svg>
